<?xml version="1.0" encoding="utf-8"?>
<!-- Generator: Adobe Illustrator 23.0.6, SVG Export Plug-In . SVG Version: 6.00 Build 0)  -->
<svg version="1.1" id="Layer_1" xmlns="http://www.w3.org/2000/svg" xmlns:xlink="http://www.w3.org/1999/xlink" x="0px" y="0px"
	 viewBox="0 0 51.2 50.4" style="enable-background:new 0 0 51.2 50.4;" xml:space="preserve">
<g>
	<path d="M29.1,13.9c-0.9,0-1.7-0.4-2.2-1.1c-0.5-0.8-0.7-1.8-0.4-2.6c0.9-3,0.5-5.5-1.4-7.2c-2.4-2.2-6.7-2.3-11-0.4
		C11.3,3.9,1.8,9.4,1.8,25.2c0,13.2,8.3,24,18.6,24c11,0,18.6-12.1,18.6-23c0-3.5-0.8-6.4-2.3-8.5C35,15.2,32.3,13.9,29.1,13.9z
		 M12,13.3c1.9,0,3.5,1.6,3.5,3.5S14,20.3,12,20.3s-3.5-1.6-3.5-3.5C8.5,14.9,10.1,13.3,12,13.3z M6.6,25.6c0-1.9,1.6-3.5,3.5-3.5
		s3.5,1.6,3.5,3.5s-1.6,3.5-3.5,3.5S6.6,27.6,6.6,25.6z M13,38.5c-1.9,0-3.5-1.6-3.5-3.5s1.6-3.5,3.5-3.5s3.5,1.6,3.5,3.5
		S15,38.5,13,38.5z M21,43.8c-1.9,0-3.5-1.6-3.5-3.5s1.6-3.5,3.5-3.5c1.9,0,3.5,1.6,3.5,3.5S23,43.8,21,43.8z M32.9,28
		c-0.5,1-1.4,1.6-2.4,1.9l0,0C30.2,30,29.9,30,29.6,30c-2.1,0-4.1-1.7-4.9-4.2c-0.5-1.6-0.3-3.2,0.4-4.5c0.5-1,1.4-1.6,2.4-1.9
		c2.4-0.6,4.9,1.2,5.8,4.1C33.8,25.1,33.6,26.7,32.9,28z"/>
	<path d="M49.8,10.6c0-3.2-4.8-8.4-5.3-9c-0.3-0.3-0.7-0.4-1.1-0.3c-0.4,0.1-0.6,0.5-0.6,0.9c-0.2,4.6-1.1,5.4-2,6.3
		c-0.2,0.2-0.4,0.3-0.6,0.5c-1.3,1.4-1.7,3.5-0.9,5.2c0.4,0.8,0.9,1.4,1.6,1.9c-0.3,4.5-0.5,7.2-0.5,12c0,5.4,0.2,10.5,0.7,14.3
		c0.7,5.8,1.5,6.9,2.7,6.9s2-1.1,2.6-6.8c0.4-3.8,0.7-8.9,0.7-14.3c0-4.9-0.2-7.6-0.5-12.1C48.5,15,49.8,13,49.8,10.6z"/>
</g>
</svg>
