<?xml version="1.0" encoding="utf-8"?>
<!-- Generator: Adobe Illustrator 23.0.6, SVG Export Plug-In . SVG Version: 6.00 Build 0)  -->
<svg version="1.1" id="Layer_1" xmlns="http://www.w3.org/2000/svg" xmlns:xlink="http://www.w3.org/1999/xlink" x="0px" y="0px"
	 viewBox="0 0 92.3 60.1" style="enable-background:new 0 0 92.3 60.1;" xml:space="preserve">
<path d="M90.9,25.4c-0.5-1.3-2.1-1.9-3.4-1.4c-8.7,3.6-15.8,3.8-21.2,2.6c-0.1,0-0.3-0.1-0.4-0.1c-9.3-2.2-13.8-8.6-14.1-9.1
	c-0.8-1.2-2.4-1.5-3.6-0.7c-1.2,0.8-1.5,2.4-0.7,3.6c0.1,0.1,4.6,6.6,13.6,10c-1.2,3.3-3.1,9.7-3.7,16.1c0,0,0.5,0.1,1.4,0.3
	c-0.4,4.4-0.6,7.7-0.6,8c0,1.4,1.1,2.6,2.5,2.7h0.1c1.4,0,2.5-1.1,2.6-2.5c0-0.1,0.1-3.3,0.5-7.5c1.5,0.1,3,0.2,4.6,0.2
	c3.1,7,7.2,10.4,7.5,10.7c0.5,0.4,1.1,0.6,1.6,0.6c0.8,0,1.5-0.3,2-1c0.9-1.1,0.7-2.7-0.4-3.6c-0.1,0-2.8-2.3-5.2-7
	c1.4-0.2,2.7-0.6,3.8-1.1c0,0-2.6-7.8-2.7-13.8c4.2-0.3,8.9-1.4,14.1-3.5C90.8,28.2,91.4,26.7,90.9,25.4z M43.9,16.8
	c-1.2-0.8-2.8-0.5-3.6,0.7c-0.3,0.4-4.8,6.8-14.1,9.1c-0.1,0-0.3,0-0.4,0.1c-5.4,1.2-12.4,1-21.2-2.6c-1.3-0.5-2.8,0.1-3.4,1.4
	c-0.5,1.3,0.1,2.8,1.4,3.4c6.4,2.6,12,3.7,16.9,3.7c0.1,0,0.1,0,0.2,0c0.3,2.1,0.7,5.2,0.6,8.5c-2.4,8.9-7.4,13.1-7.6,13.4
	c-1.1,0.9-1.3,2.5-0.4,3.6c0.5,0.6,1.3,1,2,1c0.6,0,1.1-0.2,1.6-0.6c0.3-0.3,6-5,9-14.8c0.9-0.2,1.7-0.3,2.6-0.3
	c0.8,6.1,1,11.7,1,11.7c0,1.4,1.2,2.5,2.6,2.5h0.1c1.4,0,2.5-1.2,2.5-2.7c0-0.4-0.2-5.8-1-12c0-2.8,0-8.4-0.4-12.9
	c8.1-3.5,12.1-9.4,12.2-9.5C45.4,19.2,45.1,17.6,43.9,16.8z M23.1,25.8c5.4,0,9.7-4.3,9.7-9.7s-4.3-9.7-9.7-9.7s-9.7,4.3-9.7,9.7
	S17.7,25.8,23.1,25.8z M63.1,8.8c0.2,0.3,0.1,0.8-0.1,1c-1,1.2-1.8,2.6-2.1,4.3c-1.2,5.4,2.5,10.8,8.1,11.6c5,0.7,9.8-2.6,10.9-7.6
	c0.3-1.6,0.3-3.2-0.2-4.7c-0.1-0.4,0-0.8,0.3-1c2.8-2.1,0.2,7.6,10.1,5.4c-6.1-1.4-3.1-7-3.8-9.3c-0.7-2.1-4.5-4-7.9,1.4
	c-0.1,0.2-0.4,0.2-0.5,0c-1.3-1.6-3.2-2.8-5.4-3.3c-2.2-0.5-4.4-0.2-6.3,0.8c-0.2,0.1-0.4,0-0.5-0.3c-0.9-6.3-5.1-6.1-6.6-4.5
	c-1.6,1.8-1.1,8.1-7.3,6.9C59.9,15.6,61.5,5.8,63.1,8.8z"/>
</svg>
