<?xml version="1.0" encoding="utf-8"?>
<!-- Generator: Adobe Illustrator 23.0.6, SVG Export Plug-In . SVG Version: 6.00 Build 0)  -->
<svg version="1.1" id="Layer_1" xmlns="http://www.w3.org/2000/svg" xmlns:xlink="http://www.w3.org/1999/xlink" x="0px" y="0px"
	 viewBox="0 0 27.1 31.1" style="enable-background:new 0 0 27.1 31.1;" xml:space="preserve">
<g>
	<path d="M25.3,7.9l-3-1.5l0.4-0.8c0.6-1.2,0.1-2.8-1.1-3.4L20,1.6c-1.2-0.6-2.8-0.1-3.4,1.1l-0.4,0.8l-3-1.5
		c-1.6-0.9-3.6-0.2-4.5,1.5l18,9C27.6,10.8,26.9,8.8,25.3,7.9z M21.1,5l-0.4,0.8l-3-1.5l0.4-0.8c0.2-0.4,0.7-0.6,1.1-0.4l1.5,0.7
		C21.2,4,21.3,4.5,21.1,5z"/>
	<path d="M23,17h-1v-2h1v-1h-1c0-1-1.3-2.9-3-2.9c-0.4,0-0.7,0.1-1,0.2c0-0.1,0-0.1,0-0.2c0-1.7-1.3-3-3-3c-0.4,0-0.7,0.1-1,0.2
		c-0.2-1.2-1.2-2.2-2.5-2.2S9.2,7.1,9,8.3C8.7,8.2,8.4,8.1,8,8.1c-1.7,0-3,1.3-3,2.9c-1.7,0-3,1.9-3,2.9H1v1h1v2H1
		c-0.6,0-1,0.6-1,1.2v1c0,0.6,0.4,0.8,1,0.8h1v7.2c0,1.7,1.3,2.8,3,2.8h14c1.7,0,3-1.2,3-2.8v-7.2h1c0.6,0,1-0.3,1-0.8v-1
		C24,17.6,23.6,17,23,17z M5,12c0.6,0,1-0.4,1-1c0-1.1,0.9-2,2-2c0.2,0,0.4,0.1,0.7,0.1c0.1,0,0.2,0.1,0.3,0.1c0.2,0,0.4,0,0.5-0.1
		C9.8,8.9,9.9,8.7,10,8.4c0.1-0.7,0.8-1.3,1.5-1.3s1.4,0.6,1.5,1.3c0,0.3,0.2,0.6,0.5,0.7c0.2,0.1,0.3,0.1,0.5,0.1
		c0.1,0,0.2,0,0.3-0.1C14.5,9,14.8,9,15,9c1.1,0,2,0.9,2,2v0.1c0,0.3,0.1,0.7,0.4,0.9c0.2,0.1,0.4,0.2,0.6,0.2c0.1,0,0.2,0,0.3-0.1
		c0.2-0.1,0.5-0.2,0.7-0.2c1.1,0,2,0.9,2,1.9H3C3,13,3.9,12,5,12z"/>
	<circle cx="7.7" cy="11.4" r="0.5"/>
	<circle cx="3.3" cy="7.9" r="0.7"/>
	<circle cx="5.4" cy="13" r="0.6"/>
	<circle cx="4.9" cy="2.6" r="1"/>
</g>
</svg>
