<?xml version="1.0" encoding="utf-8"?>
<!-- Generator: Adobe Illustrator 23.0.6, SVG Export Plug-In . SVG Version: 6.00 Build 0)  -->
<svg version="1.1" id="Layer_1" xmlns="http://www.w3.org/2000/svg" xmlns:xlink="http://www.w3.org/1999/xlink" x="0px" y="0px"
	 viewBox="0 0 89.9 103.1" style="enable-background:new 0 0 89.9 103.1;" xml:space="preserve">
<path d="M87.8,60.5c-0.7,5.2-2.6,9.4-7.3,9.3c-8.8-0.4-4.8-15-13.3-19.4c0,0.2,0.1,0.4,0,0.6c-0.1,0.8-1.6,0.2-1.7,3
	c0,1.6,1.8,3.7-1.3,5.7c-3.1,2-13.4-3.3-15.6,5.4c5.4,1.4,2.8,4.8,5.3,9.9c3,6.1,6.8,8.6,2.3,6.5c-1.6-0.8,3.6,3.4,6,10
	c2.4,6.6,3.3,9.6,3.3,9.6H1.7c0,0-0.5-16,8.7-24.2c4.3-3.9,5.8-5.1,5.1-5.7c-1.3-1,8-15.5,11.2-13.4c0.1,0.1,0.3,0.2,0.5,0.3
	c1.1-3.4,0.9-7-1.8-10.8c-1.2-1.7-2.3-3.6-3.1-5.5c-13.6,11.3-4.7-6.6-4.7-6.6s1-1.7,1-12.8c0.8-5.8,4.7-11.1,12.3-14.9
	c-0.5-0.1-1.1-0.2-1.7-0.1l0.6-2.2c1.1-0.1,2.1,0.2,3,0.7c0.2-1.2,0.6-2.4,1.6-3.3l3,0.7c-0.7,0.7-1.2,1.4-1.6,2.3
	c10.4-2.9,18-1,22.7,3.9c6.8,9.1,8.3,9.8,8.3,9.8s19.3,10-2.4,7.9c0.5,1,1.5,2.4,1.1,3c-0.9,1.7-1.3,2.6,0.3,4.8
	c1,1.5,4.1,5.9,4.7,7.2c0.9,1.7-4.5,1.8-4,3.1c0.2,0.6,0.9,2.1,1.2,2.7c0.2,0.4-0.4,0.8-0.9,1.1c3.8,1.1,6.8,3.9,8.4,9.4
	c1.5,5.2,3,5.6,3.6,5.6c1.3-0.1,1.6-1.7,1.7-4.2c0.1-0.5,1.7-0.8,3.7-0.5C86.3,59.4,87.8,60,87.8,60.5L87.8,60.5z"/>
</svg>
