<?xml version="1.0" encoding="utf-8"?>
<!-- Generator: Adobe Illustrator 23.0.6, SVG Export Plug-In . SVG Version: 6.00 Build 0)  -->
<svg version="1.1" id="bf2b12fd-98ef-4df9-abe4-52340225686d"
	 xmlns="http://www.w3.org/2000/svg" xmlns:xlink="http://www.w3.org/1999/xlink" x="0px" y="0px" viewBox="0 0 795.5 602.7"
	 style="enable-background:new 0 0 795.5 602.7;" xml:space="preserve">
<style type="text/css">
	.st0{fill:#3F3D56;}
	.st1{opacity:0.15;enable-background:new    ;}
	.st2{fill:none;stroke:#3F3D56;stroke-width:4;stroke-miterlimit:10;}
	.st3{fill:#1E1D1E;}
	.st4{opacity:0.1;enable-background:new    ;}
	.st5{fill:url(#SVGID_1_);}
	.st6{fill:#2F2E41;}
	.st7{fill:#FBBEBE;}
	.st8{fill:#E8E8F0;}
	.st9{fill:#F86D70;}
</style>
<title>discount</title>
<path class="st0" d="M795.5,570.9c0,5.8-35.7,11.1-94.9,15.2c-10.8,0.8-22.3,1.4-34.5,2.1c-10.5,0.6-21.6,1.1-33.2,1.6
	c-11.2,0.5-22.9,0.9-34.9,1.3c-38.1,1.3-80.3,2.2-125.1,2.7c-10.9,0.1-21.9,0.2-33,0.3c-11.6,0.1-23.4,0.1-35.3,0.1
	c-215.9,0-390.9-10.4-390.9-23.2c0-12.8,175-23.2,390.9-23.2c92.9,0,178.3,1.9,245.4,5.1l7.3,0.3h0.1
	C741.9,557.5,795.5,563.9,795.5,570.9z"/>
<path class="st1" d="M795.5,575.2c0,4.8-34.6,9.1-91.8,12.4c-10.4,0.6-21.6,1.2-33.3,1.7c-10.2,0.5-20.9,0.9-32.1,1.3
	c-10.8,0.4-22.1,0.8-33.7,1.1c-36.8,1-77.6,1.8-120.9,2.2c-10.5,0.1-21.1,0.1-32,0.2c-11.2,0.1-22.6,0.1-34.1,0.1
	c-208.7,0-378-8.5-378-18.9s169.2-18.9,378-18.9c89.9,0,172.4,1.6,237.3,4.2l7.1,0.3h0.1C743.7,564.2,795.5,569.5,795.5,575.2z"/>
<path class="st0" d="M764.4,571.9c0,3.9-34.6,7.6-91.8,10.3c-10.4,0.5-21.6,1-33.3,1.4c-10.2,0.4-20.9,0.8-32.1,1.1
	c-10.8,0.3-22.1,0.6-33.7,0.9c-36.8,0.9-77.6,1.5-120.9,1.9c-10.5,0.1-21.1,0.1-32,0.2c-11.2,0.1-22.6,0.1-34.1,0.1
	c-208.9-0.1-378-7.2-378-15.9s169.2-15.8,378-15.8c89.9,0,172.4,1.3,237.2,3.5l7.1,0.2h0.1C712.5,562.7,764.4,567,764.4,571.9z"/>
<path class="st0" d="M335.6,296.6c-34.1,0-61-13.5-80.7-40.6s-29.5-59.9-29.5-98.4c0-38.8,9.5-71.5,28.5-98.2s45.8-40,80.5-40
	c36.7,0,64.4,14.1,83,42.2s27.9,60.7,27.9,97.7c0,36.7-9.6,68.8-28.9,96.3C397.2,282.9,370.2,296.6,335.6,296.6z M336.6,266.2
	c22.4,0,39.2-9.8,50.3-29.4s16.7-44.2,16.7-74c0-33.1-5.7-60.3-17-81.4c-11.4-21.1-28.8-31.7-52.3-31.7c-44.7,0-67,35.5-67,106.4
	C267.3,229.5,290.4,266.2,336.6,266.2L336.6,266.2z M347.8,557.9h-49.3L621.6,24.7H670L347.8,557.9z M633.7,563.4
	c-34.6,0-61.6-13.7-81-41s-29.1-60.2-29.2-98.5c0-38.5,9.4-71.2,28.3-97.8c18.9-26.7,45.8-40,80.7-40c36.5,0,63.9,14.1,82.4,42.2
	s27.7,60.7,27.7,97.6c0,36.5-9.6,68.5-28.7,96.1C694.8,549.6,668,563.4,633.7,563.4L633.7,563.4z M634.3,532.2
	c22.3,0,39-9.6,50.1-28.8c11-19.2,16.6-43.8,16.6-73.7c0-32-5.6-58.8-16.8-80.5s-28.6-32.5-52.2-32.6c-45-0.1-67.5,35.4-67.5,106.4
	C564.5,495.8,587.8,532.2,634.3,532.2L634.3,532.2z"/>
<path class="st0" d="M335.6,296.6c-34.1,0-61-13.5-80.7-40.6s-29.5-59.9-29.5-98.4c0-38.8,9.5-71.5,28.5-98.2s45.8-40,80.5-40
	c36.7,0,64.4,14.1,83,42.2s27.9,60.7,27.9,97.7c0,36.7-9.6,68.8-28.9,96.3C397.2,282.9,370.2,296.6,335.6,296.6z M336.6,266.2
	c22.4,0,39.2-9.8,50.3-29.4s16.7-44.2,16.7-74c0-33.1-5.7-60.3-17-81.4c-11.4-21.1-28.8-31.7-52.3-31.7c-44.7,0-67,35.5-67,106.4
	C267.3,229.5,290.4,266.2,336.6,266.2L336.6,266.2z M347.8,557.9h-49.3L621.6,24.7H670L347.8,557.9z M633.7,563.4
	c-34.6,0-61.6-13.7-81-41s-29.1-60.2-29.2-98.5c0-38.5,9.4-71.2,28.3-97.8c18.9-26.7,45.8-40,80.7-40c36.5,0,63.9,14.1,82.4,42.2
	s27.7,60.7,27.7,97.6c0,36.5-9.6,68.5-28.7,96.1C694.8,549.6,668,563.4,633.7,563.4L633.7,563.4z M634.3,532.2
	c22.3,0,39-9.6,50.1-28.8c11-19.2,16.6-43.8,16.6-73.7c0-32-5.6-58.8-16.8-80.5s-28.6-32.5-52.2-32.6c-45-0.1-67.5,35.4-67.5,106.4
	C564.5,495.8,587.8,532.2,634.3,532.2L634.3,532.2z"/>
<path class="st1" d="M335.6,296.6c-34.1,0-61-13.5-80.7-40.6s-29.5-59.9-29.5-98.4c0-38.8,9.5-71.5,28.5-98.2s45.8-40,80.5-40
	c36.7,0,64.4,14.1,83,42.2s27.9,60.7,27.9,97.7c0,36.7-9.6,68.8-28.9,96.3C397.2,282.9,370.2,296.6,335.6,296.6z M336.6,266.2
	c22.4,0,39.2-9.8,50.3-29.4s16.7-44.2,16.7-74c0-33.1-5.7-60.3-17-81.4c-11.4-21.1-28.8-31.7-52.3-31.7c-44.7,0-67,35.5-67,106.4
	C267.3,229.5,290.4,266.2,336.6,266.2L336.6,266.2z M347.8,557.9h-49.3L621.6,24.7H670L347.8,557.9z M633.7,563.4
	c-34.6,0-61.6-13.7-81-41s-29.1-60.2-29.2-98.5c0-38.5,9.4-71.2,28.3-97.8c18.9-26.7,45.8-40,80.7-40c36.5,0,63.9,14.1,82.4,42.2
	s27.7,60.7,27.7,97.6c0,36.5-9.6,68.5-28.7,96.1C694.8,549.6,668,563.4,633.7,563.4L633.7,563.4z M634.3,532.2
	c22.3,0,39-9.6,50.1-28.8c11-19.2,16.6-43.8,16.6-73.7c0-32-5.6-58.8-16.8-80.5s-28.6-32.5-52.2-32.6c-45-0.1-67.5,35.4-67.5,106.4
	C564.5,495.8,587.8,532.2,634.3,532.2L634.3,532.2z"/>
<path class="st0" d="M304.6,296.6c-34.1,0-61-13.5-80.7-40.6s-29.5-59.9-29.5-98.4c0-38.8,9.5-71.5,28.5-98.2s45.8-40,80.5-40
	c36.7,0,64.4,14.1,83,42.2s27.9,60.7,27.9,97.7c0,36.7-9.6,68.8-28.9,96.3C366.2,282.9,339.2,296.6,304.6,296.6z M305.6,266.2
	c22.4,0,39.2-9.8,50.3-29.4s16.7-44.2,16.7-74c0-33.1-5.7-60.3-17-81.4c-11.4-21.1-28.8-31.7-52.3-31.7c-44.7,0-67,35.5-67,106.4
	C236.3,229.5,259.4,266.2,305.6,266.2L305.6,266.2z M316.8,557.9h-49.3L590.6,24.7H639L316.8,557.9z M602.7,563.4
	c-34.6,0-61.6-13.7-81-41c-19.4-27.3-29.1-60.2-29.2-98.5c0-38.5,9.4-71.2,28.3-97.8c18.9-26.7,45.8-40,80.7-40
	c36.5,0,63.9,14.1,82.4,42.2s27.7,60.7,27.7,97.6c0,36.5-9.6,68.5-28.7,96.1C663.8,549.6,637,563.4,602.7,563.4L602.7,563.4z
	 M603.3,532.2c22.3,0,39-9.6,50.1-28.8c11-19.2,16.6-43.8,16.6-73.7c0-32-5.6-58.8-16.8-80.5s-28.6-32.5-52.2-32.6
	c-45-0.1-67.5,35.4-67.5,106.4C533.5,495.8,556.8,532.2,603.3,532.2L603.3,532.2z"/>
<path class="st2" d="M412.6,571.3c4.1-7.6-0.6-17-5.9-23.8s-11.9-13.9-11.8-22.6c0.2-12.5,13.4-19.8,24-26.5
	c7.9-4.9,15.1-10.7,21.6-17.3c2.7-2.5,5-5.6,6.6-8.9c2.2-4.9,2.1-10.4,2-15.8c-0.5-17.8-1.3-35.6-2.6-53.4"/>
<path class="st3" d="M466.5,402.1c-0.3-6.6-4-12.6-9.7-15.9l-4.4,8.6l0.1-10.4c-2.1-0.6-4.2-0.9-6.4-0.8c-10.7,0.5-19,9.6-18.5,20.3
	s9.6,19,20.3,18.5C458.7,422,467,412.9,466.5,402.1z"/>
<path class="st3" d="M431.8,533.9c-4.9,9.6-16.6,13.3-26.2,8.4s-13.3-16.6-8.4-26.2s16.6-13.3,26.2-8.4c4.3,2.2,7.6,6,9.3,10.5
	l-12.2,9.9l13.4-3.1C434,528.1,433.2,531.1,431.8,533.9z"/>
<path class="st3" d="M422.2,496c-10.7,0.5-19.8-7.8-20.3-18.5l0,0c-0.2-3,0.4-6.1,1.7-8.9c2.4-5.3,6.9-9.2,12.5-10.8l-0.1,8l4.4-8.7
	l0,0c10.7-0.5,19.8,7.8,20.4,18.5C441.2,486.4,432.9,495.5,422.2,496L422.2,496L422.2,496z"/>
<path class="st3" d="M469.5,464.6c-10.7,0.7-20-7.4-20.7-18.1c-0.7-10.7,7.4-20,18.1-20.7c0.3,0,0.5,0,0.8,0
	c3.6-0.2,7.2,0.7,10.4,2.5l-3.4,9.4l7.1-6.8c3.8,3.5,6.1,8.3,6.3,13.4c0.1,1.8-0.1,3.6-0.5,5.4C485.5,458.1,478.1,464.2,469.5,464.6
	z"/>
<path class="st4" d="M463.9,407.3c-4.5,0.5-8.8,1.9-13.4,2.2s-9.5-0.8-12.3-4.3c-1.5-1.9-2.3-4.3-3.6-6.3c-1.2-1.9-2.9-3.5-4.9-4.6
	c-4.9,9.6-1,21.3,8.6,26.2s21.3,1,26.2-8.6c0.7-1.5,1.3-3.1,1.7-4.7C465.4,407.2,464.6,407.2,463.9,407.3z"/>
<path class="st4" d="M469.5,464.6c-10.7,0.5-19.9-7.8-20.3-18.6c-0.1-3.2,0.5-6.3,1.8-9.2c1.5,1,2.9,2.4,3.9,3.9
	c1.4,2.1,2.2,4.5,3.9,6.4c3,3.6,8.2,4.7,12.9,4.5s9.2-1.5,13.9-2c0.7-0.1,1.3-0.1,2-0.1C485.5,458.1,478.2,464.2,469.5,464.6z"/>
<path class="st4" d="M422.2,496c-10.7,0.5-19.8-7.8-20.3-18.5l0,0c-0.2-3,0.4-6.1,1.7-8.9c1.6,1.1,3,2.4,4.1,4
	c1.5,2.1,2.5,4.6,4.2,6.6c3.3,3.7,8.8,4.9,13.8,4.8s9.5-1.3,14.3-1.7C437.5,490.2,430.4,495.7,422.2,496z"/>
<path class="st4" d="M431.8,533.9c-4.9,9.6-16.6,13.4-26.2,8.5c-8.9-4.5-12.9-15.1-9.3-24.4c1.6,1.1,3,2.3,4.3,3.8
	c1.8,2.3,3.1,4.8,5.2,6.9c4,3.9,10.4,5.5,16.1,5.7C425.2,534.4,428.5,534.2,431.8,533.9z"/>
<path class="st2" d="M713.6,570.3c4.1-7.6-0.6-17-5.9-23.8s-11.9-13.9-11.8-22.6c0.2-12.5,13.4-19.8,24-26.5
	c7.9-4.9,15.1-10.7,21.6-17.3c2.7-2.5,5-5.6,6.6-8.9c2.2-4.9,2.1-10.4,2-15.8c-0.5-17.8-1.3-35.6-2.6-53.4"/>
<path class="st3" d="M767.5,401.1c-0.3-6.6-4-12.6-9.7-15.9l-4.4,8.6l0.1-10.4c-2.1-0.6-4.2-0.9-6.4-0.8c-10.7,0.5-19,9.6-18.5,20.3
	c0.5,10.7,9.6,19,20.3,18.5C759.7,421,768,411.9,767.5,401.1z"/>
<path class="st3" d="M732.8,532.9c-4.9,9.6-16.6,13.3-26.2,8.4c-9.6-4.9-13.3-16.6-8.4-26.2s16.6-13.3,26.2-8.4
	c4.3,2.2,7.6,6,9.3,10.5l-12.2,9.9l13.4-3.1C735,527.1,734.2,530.1,732.8,532.9z"/>
<path class="st3" d="M723.2,495c-10.7,0.5-19.8-7.8-20.3-18.5l0,0c-0.2-3,0.4-6.1,1.7-8.9c2.4-5.3,6.9-9.2,12.5-10.8l-0.1,8l4.4-8.7
	h0.1c10.7-0.5,19.8,7.8,20.3,18.5S733.9,494.5,723.2,495L723.2,495L723.2,495z"/>
<path class="st3" d="M770.4,463.6c-10.7,0.7-20-7.4-20.7-18.1s7.4-20,18.1-20.7c0.3,0,0.5,0,0.8,0c3.6-0.2,7.2,0.7,10.4,2.5
	l-3.4,9.4l7.1-6.8c3.8,3.5,6.1,8.3,6.3,13.4c0.1,1.8-0.1,3.6-0.5,5.4C786.5,457.1,779.1,463.2,770.4,463.6z"/>
<path class="st4" d="M764.9,406.3c-4.5,0.5-8.8,1.9-13.4,2.2s-9.5-0.8-12.3-4.3c-1.5-1.9-2.3-4.3-3.6-6.3c-1.2-1.9-2.9-3.5-4.9-4.6
	c-4.9,9.6-1,21.3,8.6,26.2c9.6,4.9,21.3,1,26.2-8.6c0.8-1.5,1.3-3.1,1.7-4.7C766.4,406.2,765.6,406.2,764.9,406.3z"/>
<path class="st4" d="M770.4,463.6c-10.7,0.5-19.9-7.8-20.3-18.6c-0.1-3.2,0.5-6.3,1.8-9.2c1.5,1,2.9,2.4,3.9,3.9
	c1.4,2.1,2.2,4.5,3.9,6.4c3,3.6,8.2,4.7,12.9,4.5s9.2-1.5,13.9-2c0.7-0.1,1.3-0.1,2-0.1C786.5,457.1,779.2,463.2,770.4,463.6z"/>
<path class="st4" d="M723.2,495c-10.7,0.5-19.8-7.8-20.3-18.5l0,0c-0.2-3,0.4-6.1,1.7-8.9c1.6,1.1,3,2.4,4.1,4
	c1.5,2.1,2.5,4.6,4.2,6.6c3.3,3.7,8.8,4.9,13.8,4.8c4.8-0.1,9.5-1.3,14.3-1.7C738.5,489.2,731.4,494.7,723.2,495z"/>
<path class="st4" d="M732.8,532.9c-4.9,9.6-16.6,13.4-26.2,8.5c-8.9-4.5-12.9-15.1-9.3-24.4c1.6,1.1,3,2.3,4.3,3.8
	c1.8,2.3,3.1,4.8,5.2,6.9c4,3.9,10.4,5.5,16.1,5.7C726.2,533.4,729.5,533.2,732.8,532.9z"/>
<linearGradient id="SVGID_1_" gradientUnits="userSpaceOnUse" x1="248.5064" y1="-330.8608" x2="248.5064" y2="-171.3609" gradientTransform="matrix(1 0 0 -1 -28.5 247.7749)">
	<stop  offset="0" style="stop-color:#808080;stop-opacity:0.25"/>
	<stop  offset="0.54" style="stop-color:#808080;stop-opacity:0.12"/>
	<stop  offset="1" style="stop-color:#808080;stop-opacity:0.1"/>
</linearGradient>
<path class="st5" d="M326,463.6c0-4.9-2.3-9.6-6.2-12.5c-0.2-9.2-6.8-16.7-15.2-17.8c-1.3-6.3-5.9-11.5-12.1-13.5l0,0
	c-0.7-0.2-1.5-0.4-2.3-0.5H290h-0.4h-0.3H289h-0.4h-0.3h-0.7c-8.6,0-15.7,6.6-17.2,15.2c-5.5-1.3-10.6,0.4-11.5,3.9
	c-0.2,0.9-0.2,1.9,0.2,2.8c0.9,2.7,4,5.3,8.2,6.6l0.5,0.2c0.3,0.1,0.5,0.1,0.8,0.2h0.2l0,0c-3.2,6.8-0.5,14.8,6.1,18.3
	c-0.1,0.1-0.2,0.1-0.4,0.2c-0.5,0.5-0.9,1-1.2,1.7c-1,1.8-1.8,3.6-2.3,5.6c-0.4,1.7-0.5,3.4-1,5.1c-0.9,3-3.3,5.6-3.5,8.8
	c-0.1,1.4,0.1,3.1-0.9,4.1c-0.3,0.2-0.5,0.4-0.8,0.6c-0.7,0.5-1.3,1.1-1.8,1.8c-0.3,0.6-0.7,1.2-1.2,1.6c-0.9,0.7-2.4,0.6-2.9,1.7
	s0.7,2.3,0.4,3.5c-0.2,0.9-1.3,1.4-2,2c-0.8,0.9-1.4,2-1.7,3.2c-3,0.6-6.2-0.2-8.5-2.2c0.4,1,0.7,2.1,0.9,3.2
	c-1.2-1.3-3.2-1.6-4.6-2.3c-1.9-0.9-3.5-2.1-4.9-3.6l2.6-0.4l-11.6-17.7l-3.4-0.7l3.1,5.9c-0.5,0.2-0.9,0.7-1,1.3
	c-0.2,0.7-0.2,1.3-0.1,2c0.2,1.6,0.4,3.1,0.8,4.7l0.9,4.1c0.1,0.4,0.2,0.8,0.3,1.2c-1.2,0-2.3,0.1-3.4,0.4c-2.3-0.9-4.7-1.4-7.1-1.7
	c-0.5-0.1-1.1-0.1-1.6,0.1c-0.6,0.3-1.1,0.7-1.5,1.2c-2,2.3-3.8,4.8-5.3,7.5c-6.2,10.8-14.5,20.3-22.3,30.1
	c-5.4,2.2-10.8,4.3-16.2,6.3l-11.7,4.5c-2.3,0.9-4.8,1.8-7.2,1.6c-1.1-0.1-2.5-0.2-3.1,0.7c-0.3,0.5-0.5,1-0.7,1.5
	c-0.4,0-0.8,0.1-1.2,0.1h-0.3c-0.7-1.8-1.4-3.8-2.8-5.2c-0.6,0.1-1.1,0.5-1.3,1c-0.3,0.5-0.5,1.1-0.8,1.6c-0.6,0.9-1.7,1.4-2.5,2.2
	s-1.3,2-2.1,2.8c-1.2,0.9-2.6,1.4-4,1.5c-2.2,0.5-4.3,1.3-6.2,2.4c-0.7,0.4-1.5,0.8-2.3,1.1c-0.9,0.2-1.8,0.2-2.7,0.1l-6.2-0.5
	c-0.5-0.1-1.1,0-1.6,0.1c-1.3,0.5-2.1,1.8-2,3.2c0.2,1.4,0.9,2.6,2,3.4c1.1,0.8,2.3,1.4,3.5,1.8c5.4,2.1,10.9,3.7,16.5,4.8v1.3
	c3.9,2,8.2,3,12.6,3c0.3,0,0.6,0,0.9-0.2c0.4-0.3,0.7-0.7,0.8-1.2c1.3-3.9,2.1-8,2.5-12.1l0,0c0.8,0,1.5-0.2,2.2-0.6
	c2.1-0.6,4.2,0.9,6.4,1.1c2.7,0.3,5.2-1.3,7.8-2.3c0.4-0.1,0.7-0.3,1.1-0.4c-0.7,0.9-1.6,1.8-2.5,2.5c-1.1,0.8-2.3,1.3-3.3,2.1
	c-0.9,0.8-1.8,1.5-2.8,2.2c-0.7,0.3-1.4,0.6-2.1,0.8c-1.1,0.4-2.1,0.9-3,1.5c-0.8,0.5-1.6,1.2-2.1,2c-0.9,1.2-0.6,2.9,0.7,3.8
	c0.4,0.2,0.8,0.4,1.2,0.5c0.8,0.1,1.7,0.2,2.5,0.1c3.3-0.3,6.7-0.6,10-0.9c1.4-0.1,2.8-0.3,4.2-0.6c0.7-0.2,1.5-0.4,2.2-0.6
	c1.2-0.3,2.5-0.5,3.8-0.6c0.4,0,0.7,0,1.1,0.1c0.8,0.3,1.3,1,2.1,1.2c0.5,0,1,0,1.5-0.2c2.4-0.5,4.9-0.8,7.4-0.8
	c1.1-0.1,2.4-0.3,2.9-1.3c0.6-1.3-0.4-2.7-0.8-4c-0.2-0.9-0.3-1.7-0.3-2.6c-0.2-2.2-0.8-4.3-1.8-6.2c-0.5-0.9-1-1.9-1.4-2.8
	c4.8-1.8,9.4-4.1,13.6-6.9c2.5-1.5,5-3.2,7.8-3.7c3.2-0.7,6.6,0.2,9.8,1.1c7.6,2.2,15.1,4.8,22.4,7.8c3.5,1.4,7,3,10.6,4
	c1,1.4,2.3,2.6,3.8,3.7c2.4,1.5,5.3,2,8.2,2.2c3.8,0.3,7.6,0.5,11.5,0.4c2.9,0,5.9-0.3,8.5-1.6c0.6-0.3,1.2-0.7,1.8-1.2
	c2,0.4,4-0.7,5.6-2.1c2.1-1.8,3.6-4.1,4.3-6.8c0.9-3.6,0.2-7.8,2.4-10.8c0.6-0.8,1.4-1.4,1.9-2.2c0.7-1.1,1.1-2.3,1-3.6l0.1-0.2
	c0.5-1.2,0.8-2.4,1-3.6c0.3-1,0.6-1.9,1-2.9c1.1-2.8,2.1-5.6,2.9-8.5c0.6-1.9,1-3.9,1.4-5.8c0.2-1.6,0.4-3.2,0.5-4.8
	c0.2-2.5,0.6-4.9,1.4-7.3c2-5.6,3.1-11.5,3.3-17.5c0-0.1,0-0.2,0-0.3c6-0.7,10.5-5.8,10.5-11.8c0-1.8-0.4-3.5-1.1-5.1
	C325.3,469.1,326,466.4,326,463.6z M269.5,532.3c0.2,0.6,0.4,1.2,0.6,1.8c-0.9-0.9-1.8-1.8-2.8-2.8c0.4,0.1,0.7,0.2,1.1,0.4
	C268.7,531.9,269.1,532.1,269.5,532.3L269.5,532.3z M265,529.3c-5.5-4.7-11.8-8.4-17.4-13c3,1.5,6,3.3,9,4.9c3.5,2,7,3.9,10.6,5.7
	C266.6,527.9,265.9,528.7,265,529.3L265,529.3z M267.3,517.4l0.3-0.3c0,0.7,0,1.3,0,1.9c-0.5-0.2-1-0.3-1.5-0.5
	C266.5,518.1,266.9,517.7,267.3,517.4L267.3,517.4z M219.2,530.2c2.2-2.5,4.2-5.3,5.8-8.3c2.2,3.8,5.7,6.5,8.7,9.7
	C228.9,530.9,224.1,530.4,219.2,530.2L219.2,530.2z"/>
<polygon class="st6" points="227,484.1 230.5,484.8 242.2,502.2 237,502.9 "/>
<path class="st7" d="M143.5,554.6c0.9,3.1,2.1,6.1,3.4,9c3.9-0.8,7.7-1.9,11.5-3.3c-0.7-1.1-1.5-2.2-2.4-3.2s-2-1.9-3.2-2.5
	c-1.2-0.5-2.7-0.1-3.9-0.1C147,554.6,145.3,554.6,143.5,554.6z"/>
<path class="st6" d="M152.8,559.2c-1.9-0.6-3.1-2.6-3.9-4.5s-1.4-4-2.9-5.3c-0.6,0.1-1.1,0.5-1.3,1c-0.3,0.5-0.5,1.1-0.8,1.5
	c-0.6,0.9-1.7,1.3-2.5,2.1s-1.3,1.9-2.1,2.7c-1.2,0.8-2.6,1.4-4,1.5c-2.2,0.5-4.3,1.3-6.3,2.3c-0.7,0.4-1.5,0.8-2.3,1
	c-0.9,0.2-1.8,0.2-2.7,0.1l-6.2-0.5c-0.6-0.1-1.1,0-1.7,0.1c-1.3,0.5-2.1,1.7-2,3.1c0.2,1.3,0.9,2.6,2,3.3c1.1,0.8,2.3,1.4,3.5,1.8
	c5.4,2,11,3.6,16.7,4.8v1.2c4,2,8.3,3,12.7,3c0.3,0,0.7,0,1-0.2c0.4-0.3,0.7-0.7,0.8-1.2c1.5-4.4,2.4-8.9,2.6-13.5
	c0.1-1.2,0-2.3-0.3-3.5C152.7,559.1,153.9,559.6,152.8,559.2"/>
<path class="st6" d="M272.2,535.7c-18.5,1.1-36.7-4.3-55.2-4.9c-2.3-0.1-4.6,0-6.9,0.4c-2.4,0.6-4.6,1.5-6.8,2.6
	c-9.9,4.6-20.2,8.4-30.4,12.3l-11.8,4.4c-2.4,0.9-4.8,1.8-7.3,1.6c-1.1-0.1-2.5-0.2-3.1,0.7c-1.9,2.8-1,7,0.3,10.2
	c0.4,1,1.1,2.2,2.2,2.3c0.8-0.1,1.5-0.2,2.3-0.6c2.1-0.6,4.3,0.9,6.5,1.1c2.7,0.3,5.3-1.3,7.8-2.2c4.3-1.6,8.9-1.5,13.4-2.3
	c7.5-1.3,14.5-4.7,21-8.7c2.5-1.5,5-3.1,7.8-3.7c3.3-0.6,6.6,0.2,9.8,1.1c7.7,2.2,15.2,4.7,22.6,7.7c3.8,1.7,7.8,3.1,11.8,4.3
	c8.8,2.3,18,1.8,26.4-1.5c3-1.2,6.2-3.2,6.3-6.4c0.1-1.8-1.3-3.4-2.3-5c-0.6-1-1.2-2-1.9-3C281.7,541.5,277.8,535.4,272.2,535.7z"/>
<path class="st4" d="M272.2,535.7c-18.5,1.1-36.7-4.3-55.2-4.9c-2.3-0.1-4.6,0-6.9,0.4c-2.4,0.6-4.6,1.5-6.8,2.6
	c-9.9,4.6-20.2,8.4-30.4,12.3l-11.8,4.4c-2.4,0.9-4.8,1.8-7.3,1.6c-1.1-0.1-2.5-0.2-3.1,0.7c-1.9,2.8-1,7,0.3,10.2
	c0.4,1,1.1,2.2,2.2,2.3c0.8-0.1,1.5-0.2,2.3-0.6c2.1-0.6,4.3,0.9,6.5,1.1c2.7,0.3,5.3-1.3,7.8-2.2c4.3-1.6,8.9-1.5,13.4-2.3
	c7.5-1.3,14.5-4.7,21-8.7c2.5-1.5,5-3.1,7.8-3.7c3.3-0.6,6.6,0.2,9.8,1.1c7.7,2.2,15.2,4.7,22.6,7.7c3.8,1.7,7.8,3.1,11.8,4.3
	c8.8,2.3,18,1.8,26.4-1.5c3-1.2,6.2-3.2,6.3-6.4c0.1-1.8-1.3-3.4-2.3-5c-0.6-1-1.2-2-1.9-3C281.7,541.5,277.8,535.4,272.2,535.7z"/>
<path class="st7" d="M178.9,555.5c2.9,1,5.8,1.9,8.7,2.7c1.7-2.7,4.7-4.6,5.4-7.7c0-0.1,0-0.3,0-0.4c-0.1-0.1-0.2-0.2-0.3-0.3
	c-2.1-1.2-4.4-1.8-6.8-2c-1.9-0.1-2.8,1.9-3.6,3.3C182,551.6,179.7,555.7,178.9,555.5z"/>
<path class="st6" d="M183,553.5c-1.7-0.3-3.3-1.3-4.3-2.8c-0.4-0.7-0.8-1.7-1.7-1.6s-1.1,1-1.3,1.7c-0.6,2.8-1.4,5.5-2.4,8.2
	s-2.8,5-5.1,6.7c-1.1,0.7-2.3,1.3-3.3,2.1c-0.9,0.8-1.8,1.5-2.8,2.1c-0.7,0.3-1.4,0.6-2.2,0.8c-1.1,0.4-2.1,0.9-3.1,1.5
	c-0.8,0.5-1.6,1.2-2.1,2s-0.6,1.9-0.2,2.8c0.4,0.7,1.2,1.2,2,1.4c0.8,0.1,1.7,0.2,2.5,0.1c3.4-0.3,6.7-0.5,10.1-0.8
	c1.4-0.1,2.8-0.3,4.2-0.6c0.7-0.2,1.5-0.4,2.2-0.6c1.3-0.3,2.6-0.5,3.8-0.6c0.4,0,0.8,0,1.1,0.1c0.8,0.3,1.3,1,2.1,1.2
	c0.5,0.1,1,0,1.5-0.2c2.5-0.5,5-0.8,7.5-0.8c1.1-0.1,2.4-0.3,2.9-1.3c0.6-1.2-0.4-2.6-0.8-3.9c-0.2-0.8-0.3-1.7-0.3-2.6
	c-0.2-2.1-0.8-4.2-1.8-6.1c-0.9-1.6-2-3.3-1.4-5c0.3-0.5,0.5-1.1,0.6-1.7C190.8,552.9,184.5,553.9,183,553.5z"/>
<path class="st7" d="M244.5,506.1c-3.3-1.4-5.9-4-7.4-7.3c-0.3-0.7-0.6-1.4-0.8-2.1c-1-2.3-2.5-4.4-4.4-6.1c-0.4-0.5-1-0.7-1.6-0.7
	c-0.6,0.2-1.1,0.7-1.2,1.3c-0.2,0.7-0.2,1.3-0.1,2c0.2,1.6,0.4,3.1,0.8,4.6l0.9,4.1c0.1,0.6,0.3,1.2,0.6,1.8
	c0.4,0.7,0.9,1.3,1.5,1.8c0.8,0.8,1.7,1.5,2.5,2.2c0.5,0.4,1,0.8,1.5,1.1c0.9,0.4,1.8,0.7,2.8,0.8c3.7,0.7,7.4,1.7,10.5,4
	c0,0,0-2.7-0.1-3c0-0.8-0.3-1.6-0.8-2.2C248,507.1,246,506.8,244.5,506.1z"/>
<path class="st4" d="M244.5,506.1c-3.3-1.4-5.9-4-7.4-7.3c-0.3-0.7-0.6-1.4-0.8-2.1c-1-2.3-2.5-4.4-4.4-6.1c-0.4-0.5-1-0.7-1.6-0.7
	c-0.6,0.2-1.1,0.7-1.2,1.3c-0.2,0.7-0.2,1.3-0.1,2c0.2,1.6,0.4,3.1,0.8,4.6l0.9,4.1c0.1,0.6,0.3,1.2,0.6,1.8
	c0.4,0.7,0.9,1.3,1.5,1.8c0.8,0.8,1.7,1.5,2.5,2.2c0.5,0.4,1,0.8,1.5,1.1c0.9,0.4,1.8,0.7,2.8,0.8c3.7,0.7,7.4,1.7,10.5,4
	c0,0,0-2.7-0.1-3c0-0.8-0.3-1.6-0.8-2.2C248,507.1,246,506.8,244.5,506.1z"/>
<ellipse class="st6" cx="282.1" cy="470.4" rx="4.5" ry="4.5"/>
<path class="st6" d="M279.3,467.7c-1.2-0.3-2.5-0.1-3.5,0.5c-0.5,0.5-0.9,1-1.2,1.7c-1,1.7-1.8,3.6-2.3,5.5c-0.4,1.7-0.5,3.4-1,5
	c-0.9,3-3.3,5.5-3.5,8.7c-0.1,1.4,0.1,3-0.9,4c-0.3,0.2-0.5,0.4-0.8,0.6c-0.7,0.5-1.3,1.1-1.8,1.8c-0.3,0.6-0.7,1.2-1.3,1.7
	c-0.9,0.7-2.4,0.6-2.9,1.7s0.7,2.3,0.4,3.4c-0.2,0.9-1.3,1.4-2,2c-0.8,0.9-1.4,2-1.7,3.2c-3,0.6-6.2-0.2-8.6-2.2
	c1.3,3.1,1.3,6.5,1.3,9.8c0.1,1.1-0.1,2.1-0.8,3c3.6,0.1,7.1,1,10.5,1.8c1.5,0.5,3.1,0.5,4.6,0c0.8-0.4,1.5-1,2.1-1.7
	c1.9-1.9,3.9-4,4.3-6.7c0.1-1.5,0.1-3,0.1-4.5c0.2-1.9,0.6-3.7,1.2-5.5c1-3.7,1.7-7.5,2-11.3c0.2-2.4,2.3-4.3,3.3-6.4
	c2-4,4.1-8.2,4.3-12.6C281.3,469.6,280.8,467.9,279.3,467.7z"/>
<path class="st4" d="M279.3,467.7c-1.2-0.3-2.5-0.1-3.5,0.5c-0.5,0.5-0.9,1-1.2,1.7c-1,1.7-1.8,3.6-2.3,5.5c-0.4,1.7-0.5,3.4-1,5
	c-0.9,3-3.3,5.5-3.5,8.7c-0.1,1.4,0.1,3-0.9,4c-0.3,0.2-0.5,0.4-0.8,0.6c-0.7,0.5-1.3,1.1-1.8,1.8c-0.3,0.6-0.7,1.2-1.3,1.7
	c-0.9,0.7-2.4,0.6-2.9,1.7s0.7,2.3,0.4,3.4c-0.2,0.9-1.3,1.4-2,2c-0.8,0.9-1.4,2-1.7,3.2c-3,0.6-6.2-0.2-8.6-2.2
	c1.3,3.1,1.3,6.5,1.3,9.8c0.1,1.1-0.1,2.1-0.8,3c3.6,0.1,7.1,1,10.5,1.8c1.5,0.5,3.1,0.5,4.6,0c0.8-0.4,1.5-1,2.1-1.7
	c1.9-1.9,3.9-4,4.3-6.7c0.1-1.5,0.1-3,0.1-4.5c0.2-1.9,0.6-3.7,1.2-5.5c1-3.7,1.7-7.5,2-11.3c0.2-2.4,2.3-4.3,3.3-6.4
	c2-4,4.1-8.2,4.3-12.6C281.3,469.6,280.8,467.9,279.3,467.7z"/>
<path class="st6" d="M275.1,539.6c-3.8-1.8-6.7-5.2-9.8-8.2c-5.9-5.6-13.2-9.5-19.4-14.8c-4.1-3.5-7.8-7.5-12.4-10.4
	c-4-2.6-8.5-4.1-13.3-4.7c-0.5-0.1-1.1-0.1-1.6,0.1c-0.6,0.3-1.1,0.7-1.5,1.2c-2,2.3-3.8,4.7-5.3,7.3c-7.9,13.4-19.1,24.7-28.5,37.2
	c-0.6,0.6-0.7,1.6-0.1,2.3l1.9,3.7c1.1,2.1,2.8,4.5,5,4.1c1-0.3,1.9-0.9,2.7-1.7l8.5-8.1l8.9-8.5c5.2-5,10.5-10.1,13.9-16.5
	c2.7,4.6,7.4,7.6,10.6,11.9c1.2,1.6,2.2,3.4,3.3,5.1c1.8,2.7,3.8,5.3,5.8,7.8l10.2,13c1.3,1.9,2.9,3.5,4.7,4.8
	c2.4,1.5,5.4,1.9,8.2,2.2c3.8,0.4,7.7,0.5,11.5,0.4c2.9,0,6-0.2,8.6-1.5s4.8-4,4.7-6.9c-0.2-1.5-0.7-3-1.5-4.3
	C286.8,548.5,282,542.9,275.1,539.6z"/>
<ellipse class="st8" cx="284.9" cy="473.5" rx="3.5" ry="3.5"/>
<path class="st7" d="M284.1,470.9c0.8,1.6,0.9,3.3,0.4,5c-0.5,1.6-1.3,3.2-2.2,4.6c-0.8,1.5-1.8,2.9-2.9,4.1
	c5.3,0.3,10.5-1.8,15.2-4.4c3.8-2,7.6-4.5,9.6-8.4c-1.2,0.3-2.5,0.1-3.5-0.7c-1-0.7-1.9-1.6-2.7-2.5l-2.7-3
	c-0.6-0.7-1.2-1.4-1.7-2.2c-0.6-1.1-0.8-2.3-0.7-3.5c-1.1,1.1-2.3,2.1-3.5,2.9c-1.9,1.3-4,2.2-5.9,3.4c-0.7,0.4-2.2,1.2-1.8,2
	S283.6,470,284.1,470.9z"/>
<path class="st4" d="M284.1,470.9c0.8,1.6,0.9,3.3,0.4,5c-0.5,1.6-1.3,3.2-2.2,4.6c-0.8,1.5-1.8,2.9-2.9,4.1
	c5.3,0.3,10.5-1.8,15.2-4.4c3.8-2,7.6-4.5,9.6-8.4c-1.2,0.3-2.5,0.1-3.5-0.7c-1-0.7-1.9-1.6-2.7-2.5l-2.7-3
	c-0.6-0.7-1.2-1.4-1.7-2.2c-0.6-1.1-0.8-2.3-0.7-3.5c-1.1,1.1-2.3,2.1-3.5,2.9c-1.9,1.3-4,2.2-5.9,3.4c-0.7,0.4-2.2,1.2-1.8,2
	S283.6,470,284.1,470.9z"/>
<path class="st8" d="M284.2,471.4c-1.1,1.6-1.1,3.6,0,5.2c0.2,0.2,0.7,1.4,1,1.4c0.2,0,0.5-0.1,0.6-0.3c1.2-1.3,2.3-2.6,3.4-4
	c1.1-1.4,2.6-2.4,4.3-2.8c2.1-0.3,4.1,0.8,5.9,1.8c0.8,0.4,1.5,1,2,1.7c0.4,0.7,0.6,1.5,0.7,2.3c0.5,4.8,0.7,9.6,0.6,14.4
	c0.1,3.5-0.1,6.9-0.7,10.3c-0.3,1.8-0.8,3.5-1.1,5.3c-0.2,1.6-0.2,3.1-0.2,4.7v6.6c0,1.2,0,2.4,0.3,3.6c0.4,1.4,0.9,2.8,1.5,4.2
	c0.5,1.6,0.8,3.3,1,5l0.9,6.8c0.3,2.2,0.5,4.5-0.8,6.2c-0.6,0.8-1.4,1.4-2,2.2c-2.3,2.9-1.5,7-2.5,10.6c-0.7,2.6-2.3,4.9-4.3,6.7
	c-1.6,1.3-3.7,2.4-5.7,2c-2.8-0.5-4.4-3.4-5.2-6.1s-1-5.7-2.7-8c-1.3-1.9-3.4-3.1-5.3-4.4s-3.7-3.1-4.1-5.4c-0.2-1-0.1-2-0.2-3
	c-0.3-2.6-2-4.8-4.4-5.8c-1.4-0.5-3.2-0.8-4-2c2-1.3,3.5-3.3,4.2-5.6c0.6-2.3,1-4.6,1-7l0.5-7.9c0.2-3.5,0.3-7.1,1.9-10.3
	c0.7-1.4,1.6-2.8,2.3-4.2c1-2,1.8-4,2.5-6.1c1.1-3.3,2.3-6.5,3.3-9.8c0.4-1.6,1-3.1,1.8-4.6C281.4,473.5,282.6,471.7,284.2,471.4z"
	/>
<path class="st6" d="M266.6,523l2.1,0.1l0.5-3.2c0.1-0.6,0.2-1.3,0.4-1.8c0.3-0.6,0.8-1.2,1.2-1.8c2.1-2.9,1.9-6.8,2.4-10.3
	c0.7-4.7,2.7-9.2,4.6-13.5l4.1-9.1c0.4-0.7,0.7-1.5,0.9-2.3c0.2-0.9,0.3-1.8,0.3-2.7c0-1.4,0.5-6.5,0.5-7.9c0-0.5-1.1-0.2-1.4-0.7
	c-0.5-1-1.2,1.7-2.2,2.3c-0.9,0.7-1.6,1.7-1.9,2.8c-0.9,2.3-1.4,4.7-2.2,7c-0.7,2.4-2,4.5-3.8,6.2c-0.8,0.7-1.8,1.3-2.6,2.1
	c-2.5,2.5-2.8,6.5-2.9,10C266.5,502.3,266.1,523,266.6,523z"/>
<path class="st6" d="M296.8,467.6c-2,0.8-3.2,3-3.7,5.1s-0.8,4.4-1.9,6.3c-2.6,4.5-9.1,5.8-10.9,10.6c-0.5,1.6-0.7,3.3-0.7,5
	c-0.3,3.5-1.5,6.8-1.8,10.2c-0.2,2.7-0.1,5.4,0.2,8l2.3,27.2c0.4,4,0.2,8.1-0.7,12c2.3,0.3,4.7-0.1,6.9-1.1s4.1-2.3,6.2-3.5
	c3.5-2,7.5-3.3,10.6-6c0.6-0.4,1-1,1.4-1.6c0.5-1.1,0.8-2.4,1-3.6c0.3-1,0.6-1.9,1-2.8c1.1-2.7,2.1-5.5,3-8.4c0.6-1.9,1-3.8,1.4-5.8
	c0.3-1.5,0.4-3.1,0.5-4.7c0.2-2.5,0.6-4.9,1.5-7.2c2-5.5,3.1-11.4,3.3-17.3c0.1-0.9,0-1.7-0.2-2.5c-0.3-1-0.8-2-1.4-2.9
	c-1-1.8-1.5-3.8-2.4-5.6c-2-4.1-5.6-7.2-9.3-9.8C301,468.2,298.9,466.9,296.8,467.6z"/>
<path class="st7" d="M249.1,512.1c-1.6-0.8-3.1-2-4.3-3.3c-0.6-0.7-1-1.4-1.6-2.1c-1.5-1.6-3.4-2.7-5.5-3.1
	c-2.1-0.5-4.2-0.7-6.3-0.6c-1.4-0.1-2.9,0.1-4.2,0.5c-1.4,0.5-2.4,1.6-2.8,3c-0.3,1.7,0.8,3.3,2.1,4.4c1.2,1,2.7,1.7,4.3,2.1
	c1.3,0.2,2.6,0.4,3.8,0.5c7.6,0.8,14.3,4.9,20.9,8.7c5.8,3.3,11.8,6.4,17.8,9.2c0.2-1.8,0.3-3.6,0.3-5.5c0-1.4-0.1-3.4-1.4-4.2
	c-1.5-0.9-4-1.2-5.7-1.7c-3.9-1.3-7.7-2.8-11.4-4.6C253,514.3,251,513.2,249.1,512.1z"/>
<ellipse class="st7" cx="282.1" cy="455.8" rx="13.5" ry="13.5"/>
<path class="st6" d="M300.7,483c-1.1,1.5-1.9,3.1-2.6,4.9c-1.7,3.4-4.3,6.4-5.6,10c-1.4,3.8-1.3,8.3-4,11.2c-0.5,0.5-0.9,1-1.2,1.7
	c0,0.4-0.1,0.8-0.1,1.2c-0.4,1.1-2.2,1.1-2.5,2.2c-0.1,0.3,0,0.7-0.2,1c-0.3,0.7-1.2,0.8-1.8,1.2c-1.3,0.9-1,3-2,4.2
	c-0.8,1-2.1,1.4-3.4,1.2c-1.2-0.3-2.4-0.7-3.5-1.3c-0.4-0.2-0.8-0.3-1.3-0.4c-0.5,0-1,0.2-1.5,0.5c-2.5,1.6-3.7,4.7-3.6,7.7
	c0.2,3,0.9,5.9,2.1,8.6c0.1,0.5,0.4,0.9,0.7,1.3c0.8,0.9,2.3,0.7,3.4,0.2c1-0.6,2.1-1.1,3.3-1.5c2.1-0.4,4.1,1.1,6.2,0.9
	c1.5-0.2,3-0.9,4.2-1.9c2.1-1.3,4.1-2.9,5.7-4.8c0.9-1.2,1.6-2.6,2.4-3.9c1-1.6,2.2-3.1,3.4-4.5l7.8-9.5c0.8-0.9,1.5-1.9,2.1-2.9
	c0.7-1.4,1.2-2.8,1.6-4.3c0.8-2.5,1.4-5.1,1.6-7.7c0-2.2-0.2-4.4-0.6-6.5c-0.3-2.1-0.8-4.2-1.7-6.2
	C307.9,482.2,303.8,479.3,300.7,483z"/>
<path class="st9" d="M327.7,465.4c0-4.9-2.3-9.5-6.2-12.3c-0.1-8.8-6.6-16.2-15.3-17.5c-1.9-9.5-11.1-15.6-20.6-13.7
	c-7.2,1.5-12.8,7.3-13.9,14.6c-5.6-1.3-10.7,0.4-11.7,3.8c-1,3.6,3,7.8,8.9,9.4c1.9,0.5,3.8,0.7,5.7,0.6c2.8,4.1,7.2,6.8,12.1,7.5
	c1.5,6.7,6.5,11.9,13.2,13.6c0.9,2.2,2.3,4.1,4.1,5.6c0,0.4-0.1,0.8-0.1,1.3c-0.3,6.3,4.6,11.6,10.9,11.9
	c6.3,0.3,11.6-4.6,11.9-10.9c0-0.3,0-0.6,0-1c0-1.7-0.4-3.4-1.1-5C327,470.8,327.7,468.1,327.7,465.4z"/>
<path class="st4" d="M263.8,440.9c0.9-3.5,6-5.1,11.7-3.8c1.4-8.6,8.7-14.9,17.3-15c0.4,0,0.8,0,1.2,0c-1.6-0.5-3.3-0.7-5-0.7
	c-8.7,0.1-16,6.4-17.3,15c-5.6-1.3-10.7,0.4-11.7,3.8c-1,3.6,3,7.8,8.9,9.4c1.1,0.3,2.2,0.5,3.4,0.6
	C266.7,448.6,262.9,444.5,263.8,440.9z"/>
<path class="st4" d="M307.7,478.9c0-0.4,0-0.9,0.1-1.3c-1.8-1.5-3.2-3.4-4.1-5.6c-6.6-1.7-11.7-6.9-13.2-13.6
	c-4.9-0.7-9.3-3.4-12.1-7.5c-1.1,0.1-2.2,0.1-3.4-0.1c2.8,3.8,7,6.2,11.6,6.9c1.5,6.7,6.5,11.9,13.2,13.6c0.9,2.2,2.3,4.1,4.1,5.6
	c0,0.4-0.1,0.8-0.1,1.3c-0.1,6.4,5,11.7,11.3,11.8C310.6,488.3,307.6,483.8,307.7,478.9z"/>
<ellipse transform="matrix(0.7963 -0.6049 0.6049 0.7963 -219.0239 266.7982)" class="st7" cx="286.6" cy="458.6" rx="2.1" ry="2.8"/>
</svg>
