<?xml version="1.0" encoding="utf-8"?>
<!-- Generator: Adobe Illustrator 23.0.6, SVG Export Plug-In . SVG Version: 6.00 Build 0)  -->
<svg version="1.1" id="Layer_1" xmlns="http://www.w3.org/2000/svg" xmlns:xlink="http://www.w3.org/1999/xlink" x="0px" y="0px"
	 viewBox="0 0 985 822.6" style="enable-background:new 0 0 985 822.6;" xml:space="preserve">
<g>
	<path d="M935.9,136.6C905.7,87.3,858.6,49.8,804,30.9c-51.5-17.8-109.4-18-161.1-0.7c-27.5,9.2-52.8,23-75.6,40.9
		c-12.6,9.8-23.8,21.1-35,32.4c-15-15-30.2-29.8-47.8-42c-35.4-24.6-77.1-39-120-43c-42.6-4-85.5,3.7-124.6,20.8
		c-40.8,17.8-75.8,47.3-101.7,83.4c-27.4,38.2-42.7,84.2-45.5,131c5.2-1.6,10.5-3.1,15.8-4.2c1.1-0.3,2.2-0.5,3.3-0.7
		c4.1-0.9,8.3-1.6,12.4-2.2c12.9-1.9,25.9-2.5,38.9-1.9c15.4,0.7,30.7,3.1,45.5,7.3c27.9,7.9,53,22,75.2,40.5c2.3,1.9,4.6,3.9,6.8,6
		c1.4-1.3,2.9-2.6,4.3-3.9c0.7-0.6,1.4-1.2,2.1-1.8c3.3-2.8,6.7-5.5,10.2-8c9.3-6.9,19-13.1,29.3-18.4c9.1-4.7,18.6-8.8,28.5-12.1
		c23.5-7.9,49-11.1,74.1-9.7c18.2,1,36.3,4.5,53.2,10.4c44,15.4,81.7,45,106.2,84.9c3.4,5.5,6.5,11.2,9.4,17.1
		c14.9,30.8,22,66.1,19.5,100.1c-0.2,2.4-0.4,4.8-0.7,7.2c-2.8,23.9-8.7,45.7-18.9,67.6c-9.3,20.1-22.9,38.6-38.5,54.3
		c-0.3,0.3-0.5,0.5-0.8,0.8c-15.6,16.1-31.7,31.7-47.5,47.5c-20.3,20.3-40.6,40.6-61,61l-10.4,10.4c-0.2,0.2-0.4,0.4-0.6,0.6
		c-3.7,3.7-7.3,7.3-11,11c23.2,23.2,46.5,46.5,69.7,69.7c4.6,4.6,9.2,9.2,13.7,13.7c5.9,5.9,16,5.9,21.9,0l35.6-35.6
		c28.3-28.3,56.7-56.6,85-85c34.2-34.3,68.5-68.5,102.8-102.8c29.7-29.7,59.4-59.4,89.1-89.1c14.3-14.4,29.2-28.4,43.1-43.1
		c0.2-0.2,0.4-0.4,0.6-0.6c40.3-40.6,65.1-93.5,71.5-150.2C977.2,239.9,964.5,183.3,935.9,136.6z"/>
	<path d="M564.6,463.1c-2,12.2-5.2,24.1-9.7,35.6l0,0c-3.8,8.3-8.1,16.2-13.2,23.8c-1.1,1.7-2.3,3.4-3.5,5c0.2-0.3,0.4-0.5,0.4-0.6
		c-0.1,0.1-0.7,0.9-2.1,2.8c0.1-0.1,0.3-0.3,0.4-0.5c-0.4,0.6-0.9,1.1-1.3,1.7c0.3-0.4,0.6-0.8,0.8-1.2c-3.5,4.3-7.2,8.3-11.1,12.2
		c-13.3,13.3-26.6,26.6-39.8,39.8c-24,24-47.9,47.9-71.9,71.9c-11.6,11.6-23.2,23.2-34.8,34.8c-17.8,17.8-35.6,35.6-53.4,53.4
		c-11.6,11.6-23.3,23.1-35,34.8c-2.4-2.4-4.8-4.8-7.3-7.2c-23.1-23.1-46.2-46.2-69.3-69.3c-26.6-26.5-53.1-53.1-79.7-79.7
		c-20.6-20.6-41.1-41.1-61.7-61.7c-4.9-4.9-9.9-9.9-14.8-14.8c-1.2-1.2-2.3-2.3-3.5-3.5c-2.3-2.3-4.5-4.7-6.6-7.2
		c-1.1-1.3-2.2-2.6-3.3-3.9c0,0,0,0,0-0.1c-3.8-5.2-7.3-10.5-10.5-16.1c-2.7-4.7-5.1-9.5-7.3-14.3c-4.6-11.6-7.8-23.6-9.8-35.9
		c-1.3-12.4-1.3-24.8,0-37.2c2-12.3,5.3-24.3,9.8-35.9c3.4-7.6,7.4-14.9,11.9-21.9c1.2-1.8,2.4-3.7,3.7-5.5c0.6-0.9,1.3-1.8,1.9-2.6
		l0,0c0.3-0.4,0.6-0.8,0.8-1.1c0.8-1,1.6-1.9,2.4-2.9c1.6-1.9,3.3-3.8,5-5.6c3.7-3.9,7.5-7.6,11.5-11.2c1.3-1.1,2.6-2.3,3.9-3.5
		c0,0,0,0,0.1-0.1c0.3-0.2,0.8-0.5,1.5-1.1c1.2-0.9,2.4-1.7,3.6-2.5c8.4-5.8,17.2-10.8,26.5-15c11.6-4.5,23.5-7.8,35.7-9.8
		c12.4-1.3,24.9-1.3,37.3,0c12.2,2,24.2,5.2,35.7,9.8c8,3.7,15.8,7.9,23.2,12.8c2.1,1.4,4.2,2.8,6.3,4.3c0.3,0.2,0.6,0.4,0.8,0.6
		c0,0,0,0,0.1,0c0.1,0.1,0.2,0.2,0.3,0.2c4.2,3.5,8.3,7.1,12.2,11c6,5.9,11.9,11.9,17.9,17.8c11.9,11.9,32,11.9,43.9,0
		c7-7,13.8-14.2,21-20.9c3.5-3.3,7.2-6.1,10.8-9.3c-0.9,0.8-1.6,1.4-2.1,1.9c1-0.8,2.2-1.8,2.9-2.3c2-1.4,4-2.8,6.1-4.1
		c7-4.5,14.3-8.4,21.8-11.9c11.6-4.6,23.6-7.9,36-9.8c12.4-1.3,24.8-1.3,37.2,0c12.3,2,24.3,5.3,35.9,9.8
		c8.2,3.7,16.1,8.1,23.6,13.1c2.1,1.4,4.2,2.9,6.3,4.4l0,0c0.4,0.3,0.8,0.6,1,0.8c4.2,3.5,8.3,7.2,12.2,11.1
		c3.5,3.5,6.9,7.2,10.1,11.1c-1.1-1.2-1.5-1.4,2.2,2.8c1.3,1.7,2.5,3.4,3.6,5.2c5.2,7.8,9.8,16,13.6,24.5
		c4.5,11.5,7.7,23.3,9.7,35.5C566,438,566,450.6,564.6,463.1z"/>
</g>
</svg>
