<?xml version="1.0" encoding="utf-8"?>
<!-- Generator: Adobe Illustrator 23.0.6, SVG Export Plug-In . SVG Version: 6.00 Build 0)  -->
<svg version="1.1" id="Layer_1" xmlns="http://www.w3.org/2000/svg" xmlns:xlink="http://www.w3.org/1999/xlink" x="0px" y="0px"
	 viewBox="0 0 92.1 98" style="enable-background:new 0 0 92.1 98;" xml:space="preserve">
<g>
	<g>
		<circle cx="47.6" cy="49.7" r="8.8"/>
		<path d="M86.7,58.4c-2-3.3-4.4-6.1-7-8.7c2.6-2.6,5-5.4,7-8.7c1.1-2,2.2-4.1,2.7-6.7c0.5-2.5,0.5-5.5-1-8.1
			c-1.6-2.6-4.1-4.1-6.5-5s-4.8-0.9-7.1-1c-3.9,0-7.6,0.7-11.1,1.7c-0.9-3.3-2.1-6.6-3.8-9.8c0.6-1,1-2.2,1-3.5
			c0-3.8-3.1-6.8-6.8-6.8c-1.5,0-2.9,0.5-4.1,1.4c-0.7-0.2-1.5-0.3-2.3-0.3c-3,0-5.6,1.5-7.5,3.1c-2,1.7-3.2,3.7-4.4,5.6
			c-1.9,3.4-3.1,6.9-4.1,10.4c-3.6-0.9-7.2-1.6-11.1-1.7c-2.3,0.1-4.7,0.1-7.1,1c-2.4,0.8-4.9,2.3-6.5,4.9c-1.5,2.6-1.5,5.6-1,8
			c0.4,2.5,1.6,4.6,2.7,6.7c2,3.3,4.4,6.2,7,8.8c-2.4,2.5-4.7,5.1-6.6,8.2c-1.2,0-2.4,0.2-3.6,0.9c-3.3,1.9-4.4,6.1-2.5,9.3
			c0.8,1.3,1.9,2.3,3.2,2.8c0.2,0.7,0.5,1.5,0.9,2.2c1.5,2.6,4.1,4.1,6.5,4.9c2.4,0.9,4.8,0.9,7.1,1c3.8,0,7.5-0.7,11-1.6
			c1,3.6,2.2,7.1,4.1,10.5c1.2,2,2.5,4,4.5,5.7c1.9,1.6,4.5,3.1,7.5,3.2c3.1,0,5.7-1.5,7.5-3.2c2-1.7,3.2-3.7,4.5-5.7
			c1.9-3.4,3.1-6.9,4.1-10.4c3.4,0.9,6.8,1.5,10.5,1.6c0.6,1,1.4,1.9,2.5,2.5c3.3,1.9,7.5,0.8,9.3-2.5c0.7-1.3,1-2.7,0.9-4.1
			c0.6-0.6,1.1-1.2,1.5-1.9c1.5-2.7,1.5-5.7,1-8.1C88.9,62.5,87.8,60.4,86.7,58.4z M74.6,25.6c3.8,0.1,7.5,1.3,8.8,3.4
			c1.3,2.2,0.4,5.9-1.4,9.3c-1.5,2.9-3.5,5.6-5.7,8.2c-3.2-2.8-6.5-5.3-10-7.7c-0.3-4.1-0.9-8.3-1.7-12.4
			C68,25.8,71.4,25.4,74.6,25.6z M60.4,71.9c-2.9-0.7-5.7-1.6-8.6-2.7c1.8-0.9,3.6-1.9,5.4-2.9c1.7-1,3.5-2.1,5.2-3.2
			C61.9,66.1,61.2,69,60.4,71.9z M34.8,72c-0.8-2.9-1.5-5.9-2-8.9c1.7,1.1,3.5,2.2,5.2,3.2c1.8,1,3.6,2,5.4,2.9
			C40.5,70.3,37.7,71.2,34.8,72z M34.7,27.3c2.9,0.8,5.8,1.7,8.7,2.8c-1.8,1-3.6,1.9-5.4,2.9c-1.8,1-3.5,2.1-5.3,3.2
			C33.2,33.2,33.9,30.2,34.7,27.3z M28.5,55.8c-2.4-1.9-4.6-4-6.7-6.1c2.1-2.2,4.4-4.2,6.7-6.2c-0.1,2.1-0.1,4.1-0.2,6.2
			C28.4,51.7,28.4,53.8,28.5,55.8z M39.6,63.4c-2.6-1.5-5-3.2-7.5-4.9c-0.3-2.9-0.4-5.9-0.5-8.9c0-3,0.2-5.9,0.5-8.8
			c2.4-1.7,4.9-3.4,7.5-4.9c2.6-1.4,5.3-2.8,8-4c2.7,1.2,5.3,2.6,7.9,4c2.6,1.5,5.1,3.2,7.5,5c0.3,2.9,0.4,5.9,0.5,8.8
			c-0.1,3-0.2,5.9-0.5,8.8c-2.4,1.7-4.9,3.4-7.5,4.9c-2.6,1.4-5.2,2.8-7.9,4C44.9,66.2,42.2,64.9,39.6,63.4z M60.5,27.4
			c0.8,2.9,1.4,5.8,1.9,8.8c-1.7-1.1-3.5-2.2-5.2-3.2c-1.8-1-3.6-2-5.4-2.9C54.7,29,57.6,28.1,60.5,27.4z M66.6,43.6
			c2.3,1.9,4.6,4,6.7,6.1c-2.1,2.1-4.3,4.2-6.6,6.1c0.1-2,0.1-4.1,0.1-6.1C66.8,47.6,66.7,45.6,66.6,43.6z M40.1,14.2
			c1.9-3,4.5-5.6,7-5.9c0,0.1,0,0.2,0,0.2c0,3.8,3.1,6.8,6.8,6.8c0.6,0,1.1-0.1,1.7-0.2c1.5,2.5,2.7,5.2,3.6,8
			c-4,1.4-7.9,3-11.7,4.8c-3.8-1.8-7.7-3.4-11.7-4.7C37,20,38.4,16.9,40.1,14.2z M13.1,38.4c-1.8-3.4-2.7-7.2-1.4-9.4
			c1.3-2.3,5-3.4,8.9-3.5c3.2-0.1,6.6,0.2,10,0.9c-0.8,4.2-1.4,8.3-1.7,12.5c-3.5,2.4-6.8,4.9-10,7.7C16.6,44,14.6,41.3,13.1,38.4z
			 M20.6,73.9c-3.6-0.1-7.1-1.1-8.6-3.1c0.1,0,0.2-0.1,0.2-0.1c3.3-1.9,4.4-6.1,2.5-9.3c-0.3-0.5-0.6-0.9-1-1.3
			c1.4-2.5,3.2-4.9,5.2-7.2c3.2,2.8,6.5,5.4,9.9,7.7c0.3,4.2,0.9,8.4,1.7,12.5C27.2,73.6,23.8,74,20.6,73.9z M55,85.1
			c-2,3.2-4.9,5.9-7.4,5.9s-5.3-2.6-7.4-5.9c-1.8-2.7-3.1-5.8-4.3-9.1c4-1.3,7.8-2.9,11.6-4.7c3.8,1.8,7.6,3.4,11.6,4.8
			C58.1,79.3,56.7,82.4,55,85.1z M64.7,72.9c0.8-4.1,1.4-8.3,1.7-12.4c3.4-2.3,6.8-4.9,9.9-7.7c2.2,2.6,4.2,5.3,5.7,8.2
			c1.7,3.2,2.5,6.7,1.6,8.9l-0.1-0.1c-3.3-1.9-7.5-0.8-9.3,2.5c-0.3,0.5-0.5,1-0.6,1.4C70.6,73.8,67.6,73.5,64.7,72.9z"/>
	</g>
</g>
</svg>
