<?xml version="1.0" encoding="utf-8"?>
<!-- Generator: Adobe Illustrator 23.0.6, SVG Export Plug-In . SVG Version: 6.00 Build 0)  -->
<svg version="1.1" id="Layer_1" xmlns="http://www.w3.org/2000/svg" xmlns:xlink="http://www.w3.org/1999/xlink" x="0px" y="0px"
	 viewBox="0 0 100 92.9" style="enable-background:new 0 0 100 92.9;" xml:space="preserve">
<style type="text/css">
	.st0{fill-rule:evenodd;clip-rule:evenodd;}
	.st1{fill:none;}
	.st2{fill-rule:evenodd;clip-rule:evenodd;stroke:#000000;stroke-miterlimit:10;}
</style>
<circle class="st0" cx="50" cy="12.5" r="3.8"/>
<rect x="49.1" y="2.7" class="st0" width="2" height="7"/>
<g>
	<line class="st1" x1="31.4" y1="58.3" x2="25.9" y2="85.8"/>
	<polygon points="32.4,58.5 25.9,85.8 30.4,58.1 	"/>
</g>
<g>
	<line class="st1" x1="69.7" y1="57.4" x2="76.1" y2="85.8"/>
	<polygon points="70.7,57.2 76.1,85.8 68.7,57.6 	"/>
</g>
<ellipse class="st2" cx="51" cy="86.3" rx="24" ry="3.2"/>
<path class="st0" d="M70.9,40.1c0.1-0.5,0-1.1,0-1.6c0-10.5-9.4-19-20.9-19c-1.1,0-2.3,0.2-3.4,0.4c-1.1,0.2-2.2,0.4-3.3,0.7
	c-2.1,0.6-4.1,1.5-5.8,2.8c-1.8,1.2-3.3,2.7-4.6,4.3s-2.3,3.5-2.8,5.4c-0.6,2.1-0.7,4.3-0.8,6.5c0,0.2-0.1,0.6,0,0.8
	c0.4,0.7,1.5,1,2.3,1.1c1,0.2,2,0.3,3.1,0.5c3,0.4,6.1,0.6,9.2,0.7c2.1,0.1,4.2,0.1,6.3,0.1c3.4,0,6.8-0.1,10.2-0.3
	c2.5-0.2,5-0.5,7.4-0.8c0.4-0.1,0.9-0.1,1.3-0.3c0.5-0.2,1.6-0.3,1.8-0.9C70.8,40.3,70.9,40.2,70.9,40.1z"/>
<path class="st0" d="M72.6,35c0.6,1.9,0.9,3.8,0.9,5.9c0,0.5,0.1,1.2,0,1.8c0,0.1-0.1,0.3-0.1,0.4c-0.3,0.6-1.4,0.8-2,1
	c-0.5,0.2-1,0.2-1.5,0.3c-2.8,0.4-5.6,0.7-8.4,1c-3.8,0.3-7.7,0.4-11.5,0.4c-2.4,0-4.7,0-7.1-0.1c-3.5-0.1-6.9-0.3-10.3-0.8
	c-1.1-0.2-2.3-0.3-3.5-0.5c-0.9-0.2-2.2-0.5-2.6-1.3c-0.1-0.2,0-0.7,0-0.9c0.1-2.4,0.2-4.7,0.8-7C12.3,37.3,2,41.8,2,47
	c0,7.5,21.5,13.5,48,13.5S98,54.4,98,47C98,41.8,87.7,37.3,72.6,35z"/>
</svg>
